# Blender v2.79 (sub 0) OBJ File: 'gehelekomkommer.blend'
# www.blender.org
mtllib gehelekomkommer.mtl
o Cylinder.001_Cylinder.002
v 0.000000 0.129872 -0.550452
v 0.000000 0.129872 0.550452
v 0.087304 0.099488 -0.550452
v 0.087304 0.099488 0.550452
v 0.133757 0.022552 -0.550452
v 0.133757 0.022552 0.550452
v 0.117624 -0.064936 -0.550452
v 0.117624 -0.064936 0.550452
v 0.046453 -0.122040 -0.550452
v 0.046453 -0.122040 0.550452
v -0.046453 -0.122040 -0.550452
v -0.046453 -0.122040 0.550452
v -0.117624 -0.064936 -0.550452
v -0.117624 -0.064936 0.550452
v -0.133757 0.022552 -0.550452
v -0.133757 0.022552 0.550452
v -0.087304 0.099488 -0.550452
v -0.087304 0.099488 0.550452
v -0.117624 -0.064936 -0.550452
v -0.117624 -0.064936 0.550452
v -0.133757 0.022552 -0.550452
v -0.133757 0.022552 0.550452
vt 0.016440 0.023859
vt 1.009230 -0.000110
vt 1.003455 0.511826
vt -0.010570 0.472300
vt -0.009186 0.000083
vt 0.991567 -0.004114
vt 0.985808 0.273681
vt -0.001672 0.254067
vt 0.990667 0.646720
vt 0.011151 0.615201
vt 1.000836 0.980074
vt 0.016010 0.984272
vt 1.001734 0.710430
vt 0.003635 0.710232
vt -0.010094 0.341161
vt 0.998623 0.341359
vt 0.005377 -0.008068
vt 0.998166 0.000068
vt -0.001551 0.004272
vt 0.988353 -0.000130
vt 0.987951 0.515657
vt 0.003356 0.476406
vt 0.995511 0.983822
vt 0.000299 0.980288
vt 0.011131 0.004016
vt 0.998612 -0.000110
vt 0.998146 0.464204
vt 0.002702 0.448489
vt 0.721201 0.882206
vt 0.387566 0.938397
vt 0.224858 0.821731
vt 0.080734 0.508610
vt 0.123898 0.262682
vt 0.303653 0.071849
vt 0.645605 0.106314
vt 0.848640 0.309166
vt 0.901557 0.581774
vt 0.751880 0.165079
vt 0.893998 0.429705
vt 0.865160 0.726457
vt 0.668284 0.914277
vt 0.396887 0.948241
vt 0.131096 0.720599
vt 0.090814 0.428250
vt 0.206612 0.128476
vt 0.545558 0.069069
vn 0.3287 0.9444 0.0000
vn 0.8561 0.5169 0.0000
vn 0.9834 -0.1813 -0.0000
vn 0.6258 -0.7800 -0.0000
vn -0.0000 -1.0000 -0.0000
vn -0.6258 -0.7800 -0.0000
vn -0.8561 0.5169 0.0000
vn -0.3287 0.9444 0.0000
vn -0.9834 -0.1813 -0.0000
vn 0.0000 0.0000 1.0000
vn 0.0000 0.0000 -1.0000
usemtl Material.004
s off
f 1/1/1 2/2/1 4/3/1 3/4/1
f 3/5/2 4/6/2 6/7/2 5/8/2
f 5/8/3 6/7/3 8/9/3 7/10/3
f 7/10/4 8/9/4 10/11/4 9/12/4
f 9/13/5 10/14/5 12/15/5 11/16/5
f 11/16/6 12/15/6 14/17/6 13/18/6
f 15/19/7 16/20/7 18/21/7 17/22/7
f 17/22/8 18/21/8 2/23/8 1/24/8
f 19/25/9 20/26/9 22/27/9 21/28/9
usemtl Material.005
f 4/29/10 2/30/10 18/31/10 16/32/10 14/33/10 12/34/10 10/35/10 8/36/10 6/37/10
f 1/38/11 3/39/11 5/40/11 7/41/11 9/42/11 11/43/11 13/44/11 15/45/11 17/46/11
