# Blender v2.79 (sub 0) OBJ File: ''
# www.blender.org
mtllib hosomakizalm.mtl
o Cylinder_Cylinder.002
v 0.000000 -0.128579 -0.128579
v 0.000000 0.128579 -0.128579
v 0.025084 -0.128579 -0.126108
v 0.025084 0.128579 -0.126108
v 0.049205 -0.128579 -0.118791
v 0.049205 0.128579 -0.118791
v 0.071435 -0.128579 -0.106909
v 0.071435 0.128579 -0.106909
v 0.090919 -0.128579 -0.090919
v 0.090919 0.128579 -0.090919
v 0.106909 -0.128579 -0.071435
v 0.106909 0.128579 -0.071435
v 0.118791 -0.128579 -0.049205
v 0.118791 0.128579 -0.049205
v 0.126108 -0.128579 -0.025084
v 0.126108 0.128579 -0.025084
v 0.128579 -0.128579 -0.000000
v 0.128579 0.128579 -0.000000
v 0.126108 -0.128579 0.025084
v 0.126108 0.128579 0.025084
v 0.118791 -0.128579 0.049205
v 0.118791 0.128579 0.049205
v 0.106909 -0.128579 0.071435
v 0.106909 0.128579 0.071435
v 0.090919 -0.128579 0.090919
v 0.090919 0.128579 0.090919
v 0.071435 -0.128579 0.106909
v 0.071435 0.128579 0.106909
v 0.049205 -0.128579 0.118791
v 0.049205 0.128579 0.118791
v 0.025084 -0.128579 0.126108
v 0.025084 0.128579 0.126108
v -0.000000 -0.128579 0.128579
v -0.000000 0.128579 0.128579
v -0.025085 -0.128579 0.126108
v -0.025085 0.128579 0.126108
v -0.049205 -0.128579 0.118791
v -0.049205 0.128579 0.118791
v -0.071435 -0.128579 0.106909
v -0.071435 0.128579 0.106909
v -0.090919 -0.128579 0.090919
v -0.090919 0.128579 0.090919
v -0.106909 -0.128579 0.071434
v -0.106909 0.128579 0.071434
v -0.118791 -0.128579 0.049205
v -0.118791 0.128579 0.049205
v -0.126108 -0.128579 0.025084
v -0.126108 0.128579 0.025084
v -0.128579 -0.128579 -0.000000
v -0.128579 0.128579 -0.000000
v -0.126108 -0.128579 -0.025085
v -0.126108 0.128579 -0.025085
v -0.118791 -0.128579 -0.049205
v -0.118791 0.128579 -0.049205
v -0.106909 -0.128579 -0.071435
v -0.106909 0.128579 -0.071435
v -0.090919 -0.128579 -0.090919
v -0.090919 0.128579 -0.090919
v -0.071434 -0.128579 -0.106909
v -0.071434 0.128579 -0.106909
v -0.049205 -0.128579 -0.118791
v -0.049205 0.128579 -0.118791
v -0.025084 -0.128579 -0.126108
v -0.025084 0.128579 -0.126108
vt 0.294087 0.000083
vt 0.294087 0.999916
vt 0.196087 0.999917
vt 0.196085 0.000083
vt 0.098086 0.999917
vt 0.098084 0.000083
vt 0.000085 0.999917
vt 0.000083 0.000083
vt 0.522234 0.000072
vt 0.522234 0.999926
vt 0.456964 0.999926
vt 0.456964 0.000072
vt 0.391694 0.999926
vt 0.391693 0.000072
vt 0.326424 0.999926
vt 0.326423 0.000072
vt 0.261154 0.999927
vt 0.261153 0.000072
vt 0.195884 0.999927
vt 0.195883 0.000073
vt 0.130614 0.999927
vt 0.130613 0.000073
vt 0.065344 0.999927
vt 0.065342 0.000073
vt 0.000074 0.999928
vt 0.000072 0.000074
vt 0.999904 0.000096
vt 0.999904 0.927395
vt 0.909012 0.927395
vt 0.909012 0.000096
vt 0.818121 0.927395
vt 0.818121 0.000096
vt 0.727230 0.927395
vt 0.727229 0.000096
vt 0.636339 0.927395
vt 0.636337 0.000097
vt 0.545448 0.927396
vt 0.545446 0.000097
vt 0.454556 0.927396
vt 0.454554 0.000097
vt 0.363665 0.927396
vt 0.363663 0.000097
vt 0.272774 0.927396
vt 0.272771 0.000097
vt 0.181883 0.927397
vt 0.181879 0.000098
vt 0.090991 0.927397
vt 0.090988 0.000098
vt 0.000100 0.927398
vt 0.000096 0.000098
vt 0.588092 0.000077
vt 0.588091 0.999922
vt 0.490089 0.999923
vt 0.490089 0.000077
vt 0.392087 0.999923
vt 0.392087 0.000077
vt 0.294085 0.999923
vt 0.294084 0.000077
vt 0.196083 0.999923
vt 0.196082 0.000077
vt 0.098080 0.999923
vt 0.098079 0.000077
vt 0.000078 0.999923
vt 0.000077 0.000077
vt 0.686090 0.000083
vt 0.686090 0.999916
vt 0.588089 0.999916
vt 0.588089 0.000083
vt 0.490088 0.999916
vt 0.490088 0.000083
vt 0.392087 0.999916
vt 0.392087 0.000083
vt 0.458857 0.566878
vt 0.448635 0.581762
vt 0.420543 0.600860
vt 0.361618 0.616311
vt 0.297154 0.603762
vt 0.258239 0.583015
vt 0.216520 0.538757
vt 0.203896 0.482937
vt 0.207669 0.459014
vt 0.218519 0.435309
vt 0.225011 0.417240
vt 0.235373 0.403127
vt 0.262207 0.385829
vt 0.278702 0.374382
vt 0.290702 0.368700
vt 0.310835 0.359810
vt 0.323624 0.355987
vt 0.339306 0.352239
vt 0.378324 0.363207
vt 0.398711 0.369060
vt 0.431155 0.382206
vt 0.449722 0.392562
vt 0.482519 0.425408
vt 0.489191 0.437792
vt 0.494380 0.445958
vt 0.497478 0.464525
vt 0.494768 0.483437
vt 0.494281 0.494857
vt 0.489858 0.510576
vt 0.483567 0.522512
vt 0.476703 0.535835
vt 0.471602 0.550324
vt 0.339325 0.354317
vt 0.360673 0.359954
vt 0.398065 0.371356
vt 0.445264 0.376699
vt 0.451353 0.384974
vt 0.460793 0.394007
vt 0.464996 0.398951
vt 0.474021 0.405341
vt 0.482694 0.416600
vt 0.494240 0.435639
vt 0.498347 0.463269
vt 0.497961 0.491055
vt 0.495382 0.510027
vt 0.483023 0.539288
vt 0.480043 0.554547
vt 0.473064 0.566974
vt 0.454354 0.582878
vt 0.437989 0.597314
vt 0.406847 0.608426
vt 0.373813 0.617409
vt 0.339843 0.614826
vt 0.301564 0.609053
vt 0.260952 0.587303
vt 0.227571 0.558213
vt 0.210936 0.528946
vt 0.201143 0.483415
vt 0.206374 0.456640
vt 0.221621 0.425123
vt 0.242127 0.390941
vt 0.278011 0.362276
vt 0.307371 0.352655
vt 0.305403 0.376901
vn 0.0980 0.0000 -0.9952
vn 0.2903 0.0000 -0.9569
vn 0.4714 0.0000 -0.8819
vn 0.6344 0.0000 -0.7730
vn 0.7730 0.0000 -0.6344
vn 0.8819 0.0000 -0.4714
vn 0.9569 0.0000 -0.2903
vn 0.9952 0.0000 -0.0980
vn 0.9952 0.0000 0.0980
vn 0.9569 0.0000 0.2903
vn 0.8819 0.0000 0.4714
vn 0.7730 0.0000 0.6344
vn 0.6344 0.0000 0.7730
vn 0.4714 0.0000 0.8819
vn 0.2903 0.0000 0.9569
vn 0.0980 0.0000 0.9952
vn -0.0980 0.0000 0.9952
vn -0.2903 0.0000 0.9569
vn -0.4714 0.0000 0.8819
vn -0.6344 0.0000 0.7730
vn -0.7730 0.0000 0.6344
vn -0.8819 0.0000 0.4714
vn -0.9569 0.0000 0.2903
vn -0.9952 0.0000 0.0980
vn -0.9952 0.0000 -0.0980
vn -0.9569 0.0000 -0.2903
vn -0.8819 0.0000 -0.4714
vn -0.7730 0.0000 -0.6344
vn -0.6344 0.0000 -0.7730
vn -0.4714 0.0000 -0.8819
vn -0.2903 0.0000 -0.9569
vn -0.0980 0.0000 -0.9952
vn 0.0000 1.0000 0.0000
vn 0.0000 -1.0000 -0.0000
usemtl Material.004
s off
f 1/1/1 2/2/1 4/3/1 3/4/1
f 3/4/2 4/3/2 6/5/2 5/6/2
f 5/6/3 6/5/3 8/7/3 7/8/3
f 7/9/4 8/10/4 10/11/4 9/12/4
f 9/12/5 10/11/5 12/13/5 11/14/5
f 11/14/6 12/13/6 14/15/6 13/16/6
f 13/16/7 14/15/7 16/17/7 15/18/7
f 15/18/8 16/17/8 18/19/8 17/20/8
f 17/20/9 18/19/9 20/21/9 19/22/9
f 19/22/10 20/21/10 22/23/10 21/24/10
f 21/24/11 22/23/11 24/25/11 23/26/11
f 23/27/12 24/28/12 26/29/12 25/30/12
f 25/30/13 26/29/13 28/31/13 27/32/13
f 27/32/14 28/31/14 30/33/14 29/34/14
f 29/34/15 30/33/15 32/35/15 31/36/15
f 31/36/16 32/35/16 34/37/16 33/38/16
f 33/38/17 34/37/17 36/39/17 35/40/17
f 35/40/18 36/39/18 38/41/18 37/42/18
f 37/42/19 38/41/19 40/43/19 39/44/19
f 39/44/20 40/43/20 42/45/20 41/46/20
f 41/46/21 42/45/21 44/47/21 43/48/21
f 43/48/22 44/47/22 46/49/22 45/50/22
f 45/51/23 46/52/23 48/53/23 47/54/23
f 47/54/24 48/53/24 50/55/24 49/56/24
f 49/56/25 50/55/25 52/57/25 51/58/25
f 51/58/26 52/57/26 54/59/26 53/60/26
f 53/60/27 54/59/27 56/61/27 55/62/27
f 55/62/28 56/61/28 58/63/28 57/64/28
f 57/65/29 58/66/29 60/67/29 59/68/29
f 59/68/30 60/67/30 62/69/30 61/70/30
f 61/70/31 62/69/31 64/71/31 63/72/31
f 63/72/32 64/71/32 2/2/32 1/1/32
usemtl Material.005
f 4/73/33 2/74/33 64/75/33 62/76/33 60/77/33 58/78/33 56/79/33 54/80/33 52/81/33 50/82/33 48/83/33 46/84/33 44/85/33 42/86/33 40/87/33 38/88/33 36/89/33 34/90/33 32/91/33 30/92/33 28/93/33 26/94/33 24/95/33 22/96/33 20/97/33 18/98/33 16/99/33 14/100/33 12/101/33 10/102/33 8/103/33 6/104/33
f 1/105/34 3/106/34 5/107/34 7/108/34 9/109/34 11/110/34 13/111/34 15/112/34 17/113/34 19/114/34 21/115/34 23/116/34 25/117/34 27/118/34 29/119/34 31/120/34 33/121/34 35/122/34 37/123/34 39/124/34 41/125/34 43/126/34 45/127/34 47/128/34 49/129/34 51/130/34 53/131/34 55/132/34 57/133/34 59/134/34 61/135/34 63/136/34
