# Blender v2.79 (sub 0) OBJ File: 'hosomakizalm.blend'
# www.blender.org
mtllib komkommeringr.mtl
o Cube
v 0.039531 -0.045577 0.499923
v 0.039531 -0.044604 0.499923
v 0.039531 -0.045577 -0.499923
v 0.039531 -0.044604 -0.499923
v -0.039531 -0.045577 0.499923
v -0.039531 0.043835 0.499923
v -0.039531 -0.045577 -0.499923
v -0.039531 0.043835 -0.499923
vt 0.000000 0.000000
vt 0.000000 0.000000
vt 0.000000 0.000000
vt 0.000000 0.000000
vt 0.997597 1.002403
vt 1.000942 -0.002403
vt 0.000097 0.000097
vt 0.000097 0.999903
vt 0.000087 0.013159
vt 0.487688 0.561603
vt 0.999913 0.000087
vt 0.008736 0.000087
vt 0.993869 0.512582
vt 0.000082 0.500082
vt 0.000082 0.999918
vt 0.989702 1.006168
vt 0.752209 0.387593
vt 0.404249 0.312582
vt -0.008189 0.036283
vt 0.831593 0.062418
vt 0.991748 0.000082
vt -0.008252 -0.031332
vt -0.000027 0.512418
vt 0.991639 0.537582
vn 1.0000 0.0000 0.0000
vn 0.7455 0.6665 0.0000
vn 0.0000 0.0000 -1.0000
vn -1.0000 0.0000 0.0000
vn 0.0000 0.0000 1.0000
vn 0.0000 -1.0000 0.0000
usemtl Material.006
s off
f 1/1/1 3/2/1 4/3/1 2/4/1
f 8/5/2 6/6/2 2/7/2 4/8/2
usemtl Material.007
f 3/9/3 7/10/3 8/11/3 4/12/3
f 7/13/4 5/14/4 6/15/4 8/16/4
f 5/17/5 1/18/5 2/19/5 6/20/5
f 3/21/6 1/22/6 5/23/6 7/24/6
