# Blender v2.79 (sub 0) OBJ File: ''
# www.blender.org
mtllib rollenKomkommer.mtl
o Cylinder
v -0.002329 0.140962 -0.539561
v -0.002329 0.140962 0.539561
v 0.025172 0.138254 -0.539561
v 0.025172 0.138254 0.539561
v 0.051615 0.130232 -0.539561
v 0.051615 0.130232 0.539561
v 0.075986 0.117206 -0.539561
v 0.075986 0.117206 0.539561
v 0.097347 0.099675 -0.539561
v 0.097347 0.099675 0.539561
v 0.114877 0.078315 -0.539561
v 0.114877 0.078314 0.539561
v 0.127904 0.053944 -0.539561
v 0.127904 0.053944 0.539561
v 0.135925 0.027500 -0.539561
v 0.135925 0.027500 0.539561
v 0.138634 0.000000 -0.539561
v 0.138634 -0.000000 0.539561
v 0.135925 -0.027500 -0.539561
v 0.135925 -0.027500 0.539561
v 0.127904 -0.053944 -0.539561
v 0.127904 -0.053944 0.539561
v 0.114877 -0.078314 -0.539561
v 0.114877 -0.078315 0.539561
v 0.097347 -0.099675 -0.539561
v 0.097347 -0.099675 0.539561
v 0.075986 -0.117206 -0.539561
v 0.075986 -0.117206 0.539561
v 0.051615 -0.130232 -0.539561
v 0.051615 -0.130232 0.539561
v 0.025172 -0.138254 -0.539561
v 0.025172 -0.138254 0.539561
v -0.002329 -0.140962 -0.539561
v -0.002329 -0.140962 0.539561
v -0.029829 -0.138254 -0.539561
v -0.029829 -0.138254 0.539561
v -0.056273 -0.130232 -0.539561
v -0.056273 -0.130232 0.539561
v -0.080643 -0.117206 -0.539561
v -0.080643 -0.117206 0.539561
v -0.102004 -0.099675 -0.539561
v -0.102004 -0.099675 0.539561
v -0.119535 -0.078314 -0.539561
v -0.119535 -0.078314 0.539561
v -0.132561 -0.053944 -0.539561
v -0.132561 -0.053944 0.539561
v -0.140583 -0.027500 -0.539561
v -0.140583 -0.027500 0.539561
v -0.143291 0.000000 -0.539561
v -0.143291 0.000000 0.539561
v -0.140583 0.027501 -0.539561
v -0.140583 0.027501 0.539561
v -0.132561 0.053944 -0.539561
v -0.132561 0.053944 0.539561
v -0.119535 0.078315 -0.539561
v -0.119535 0.078315 0.539561
v -0.102004 0.099676 -0.539561
v -0.102004 0.099676 0.539561
v -0.080643 0.117206 -0.539561
v -0.080643 0.117206 0.539561
v -0.056273 0.130232 -0.539561
v -0.056273 0.130232 0.539561
v -0.029829 0.138254 -0.539561
v -0.029829 0.138254 0.539561
vt 0.130609 0.000068
vt 0.130610 0.999932
vt 0.065339 0.999932
vt 0.065338 0.000068
vt 0.000068 0.999932
vt 0.000068 0.000068
vt 0.065302 0.000026
vt 0.065302 0.999974
vt 0.000026 0.999975
vt 0.000026 0.000026
vt 0.456963 0.000068
vt 0.456963 0.999931
vt 0.391693 0.999931
vt 0.391692 0.000068
vt 0.326422 0.999931
vt 0.326422 0.000068
vt 0.261151 0.999931
vt 0.261151 0.000068
vt 0.195881 0.999932
vt 0.195880 0.000068
vt 0.130610 0.999932
vt 0.130609 0.000068
vt 0.065340 0.999932
vt 0.065338 0.000068
vt 0.000069 0.999932
vt 0.000068 0.000068
vt 0.652771 0.000081
vt 0.652771 0.999917
vt 0.587502 0.999917
vt 0.587502 0.000081
vt 0.522233 0.999917
vt 0.522233 0.000081
vt 0.456965 0.999917
vt 0.456964 0.000081
vt 0.391696 0.999918
vt 0.391695 0.000081
vt 0.326427 0.999918
vt 0.326426 0.000081
vt 0.261158 0.999918
vt 0.261157 0.000081
vt 0.195889 0.999918
vt 0.195888 0.000081
vt 0.130621 0.999918
vt 0.130619 0.000082
vt 0.065352 0.999919
vt 0.065350 0.000082
vt 0.000083 0.999919
vt 0.000081 0.000082
vt 0.456963 0.000068
vt 0.456963 0.999931
vt 0.391692 0.999931
vt 0.391693 0.000068
vt 0.326422 0.999931
vt 0.326422 0.000068
vt 0.261151 0.999931
vt 0.261151 0.000068
vt 0.195881 0.999932
vt 0.195880 0.000068
vt 0.130610 0.999932
vt 0.130609 0.000068
vt 0.065340 0.999932
vt 0.065338 0.000068
vt 0.000069 0.999932
vt 0.000068 0.000068
vt 0.456963 0.000068
vt 0.456962 0.999932
vt 0.391692 0.999932
vt 0.391692 0.000068
vt 0.326421 0.999932
vt 0.326421 0.000068
vt 0.261150 0.999932
vt 0.261150 0.000068
vt 0.195880 0.999932
vt 0.195879 0.000068
vt 0.525768 0.750944
vt 0.490362 0.756979
vt 0.466779 0.748331
vt 0.403169 0.730262
vt 0.357691 0.711767
vt 0.346275 0.700809
vt 0.319344 0.672163
vt 0.301851 0.655330
vt 0.287154 0.632892
vt 0.266241 0.591450
vt 0.250519 0.515779
vt 0.260408 0.472327
vt 0.274031 0.420865
vt 0.303296 0.385453
vt 0.329311 0.336446
vt 0.386101 0.312069
vt 0.425711 0.304264
vt 0.443767 0.298561
vt 0.500488 0.308267
vt 0.568685 0.304127
vt 0.602305 0.298001
vt 0.623965 0.295391
vt 0.628083 0.263203
vt 0.715047 0.397942
vt 0.727842 0.429641
vt 0.738404 0.467758
vt 0.752770 0.516055
vt 0.750305 0.564784
vt 0.736502 0.601394
vt 0.684091 0.678571
vt 0.631068 0.730262
vt 0.581039 0.739277
vt 0.420001 0.280330
vt 0.447261 0.273145
vt 0.480447 0.266008
vt 0.526667 0.272555
vt 0.571618 0.272173
vt 0.607214 0.281923
vt 0.634069 0.295536
vt 0.679528 0.355377
vt 0.740228 0.433995
vt 0.759391 0.558818
vt 0.720248 0.636239
vt 0.669999 0.662545
vt 0.655120 0.680950
vt 0.618325 0.695491
vt 0.594932 0.698703
vt 0.589431 0.707644
vt 0.567024 0.699310
vt 0.519404 0.704100
vt 0.482625 0.702853
vt 0.449578 0.689120
vt 0.414209 0.659561
vt 0.372624 0.621066
vt 0.284689 0.629010
vt 0.264381 0.581146
vt 0.261168 0.534863
vt 0.253982 0.501061
vt 0.266778 0.459570
vt 0.282295 0.414101
vt 0.297174 0.387314
vt 0.317202 0.358401
vt 0.335804 0.330040
vt 0.365258 0.294751
vn 0.0980 0.9952 0.0000
vn 0.2903 0.9569 0.0000
vn 0.4714 0.8819 0.0000
vn 0.6344 0.7730 0.0000
vn 0.7730 0.6344 0.0000
vn 0.8819 0.4714 0.0000
vn 0.9569 0.2903 0.0000
vn 0.9952 0.0980 0.0000
vn 0.9952 -0.0980 -0.0000
vn 0.9569 -0.2903 -0.0000
vn 0.8819 -0.4714 -0.0000
vn 0.7730 -0.6344 -0.0000
vn 0.6344 -0.7730 -0.0000
vn 0.4714 -0.8819 -0.0000
vn 0.2903 -0.9569 -0.0000
vn 0.0980 -0.9952 -0.0000
vn -0.0980 -0.9952 -0.0000
vn -0.2903 -0.9569 -0.0000
vn -0.4714 -0.8819 -0.0000
vn -0.6344 -0.7730 -0.0000
vn -0.7730 -0.6344 -0.0000
vn -0.8819 -0.4714 -0.0000
vn -0.9569 -0.2903 -0.0000
vn -0.9952 -0.0980 -0.0000
vn -0.9952 0.0980 0.0000
vn -0.9569 0.2903 0.0000
vn -0.8819 0.4714 0.0000
vn -0.7730 0.6344 0.0000
vn -0.6344 0.7730 0.0000
vn -0.4714 0.8819 0.0000
vn -0.2903 0.9569 0.0000
vn -0.0980 0.9952 0.0000
vn 0.0000 0.0000 1.0000
vn 0.0000 0.0000 -1.0000
usemtl Material.001
s off
f 1/1/1 2/2/1 4/3/1 3/4/1
f 3/4/2 4/3/2 6/5/2 5/6/2
f 5/7/3 6/8/3 8/9/3 7/10/3
f 7/11/4 8/12/4 10/13/4 9/14/4
f 9/14/5 10/13/5 12/15/5 11/16/5
f 11/16/6 12/15/6 14/17/6 13/18/6
f 13/18/7 14/17/7 16/19/7 15/20/7
f 15/20/8 16/19/8 18/21/8 17/22/8
f 17/22/9 18/21/9 20/23/9 19/24/9
f 19/24/10 20/23/10 22/25/10 21/26/10
f 21/27/11 22/28/11 24/29/11 23/30/11
f 23/30/12 24/29/12 26/31/12 25/32/12
f 25/32/13 26/31/13 28/33/13 27/34/13
f 27/34/14 28/33/14 30/35/14 29/36/14
f 29/36/15 30/35/15 32/37/15 31/38/15
f 31/38/16 32/37/16 34/39/16 33/40/16
f 33/40/17 34/39/17 36/41/17 35/42/17
f 35/42/18 36/41/18 38/43/18 37/44/18
f 37/44/19 38/43/19 40/45/19 39/46/19
f 39/46/20 40/45/20 42/47/20 41/48/20
f 41/49/21 42/50/21 44/51/21 43/52/21
f 43/52/22 44/51/22 46/53/22 45/54/22
f 45/54/23 46/53/23 48/55/23 47/56/23
f 47/56/24 48/55/24 50/57/24 49/58/24
f 49/58/25 50/57/25 52/59/25 51/60/25
f 51/60/26 52/59/26 54/61/26 53/62/26
f 53/62/27 54/61/27 56/63/27 55/64/27
f 55/65/28 56/66/28 58/67/28 57/68/28
f 57/68/29 58/67/29 60/69/29 59/70/29
f 59/70/30 60/69/30 62/71/30 61/72/30
f 61/72/31 62/71/31 64/73/31 63/74/31
f 63/74/32 64/73/32 2/2/32 1/1/32
usemtl Material.002
f 4/75/33 2/76/33 64/77/33 62/78/33 60/79/33 58/80/33 56/81/33 54/82/33 52/83/33 50/84/33 48/85/33 46/86/33 44/87/33 42/88/33 40/89/33 38/90/33 36/91/33 34/92/33 32/93/33 30/94/33 28/95/33 26/96/33 24/97/33 22/98/33 20/99/33 18/100/33 16/101/33 14/102/33 12/103/33 10/104/33 8/105/33 6/106/33
f 1/107/34 3/108/34 5/109/34 7/110/34 9/111/34 11/112/34 13/113/34 15/114/34 17/115/34 19/116/34 21/117/34 23/118/34 25/119/34 27/120/34 29/121/34 31/122/34 33/123/34 35/124/34 37/125/34 39/126/34 41/127/34 43/128/34 45/129/34 47/130/34 49/131/34 51/132/34 53/133/34 55/134/34 57/135/34 59/136/34 61/137/34 63/138/34
