# Blender v2.79 (sub 0) OBJ File: 'hosomakizalm.blend'
# www.blender.org
mtllib uramaki.mtl
o Cylinder_Cylinder.002
v 0.000000 -0.128579 -0.128579
v 0.000000 0.128579 -0.128579
v 0.025084 -0.128579 -0.126108
v 0.025084 0.128579 -0.126108
v 0.049205 -0.128579 -0.118791
v 0.049205 0.128579 -0.118791
v 0.071435 -0.128579 -0.106909
v 0.071435 0.128579 -0.106909
v 0.090919 -0.128579 -0.090919
v 0.090919 0.128579 -0.090919
v 0.106909 -0.128579 -0.071435
v 0.106909 0.128579 -0.071435
v 0.118791 -0.128579 -0.049205
v 0.118791 0.128579 -0.049205
v 0.126108 -0.128579 -0.025084
v 0.126108 0.128579 -0.025084
v 0.128579 -0.128579 -0.000000
v 0.128579 0.128579 -0.000000
v 0.126108 -0.128579 0.025084
v 0.126108 0.128579 0.025084
v 0.118791 -0.128579 0.049205
v 0.118791 0.128579 0.049205
v 0.106909 -0.128579 0.071435
v 0.106909 0.128579 0.071435
v 0.090919 -0.128579 0.090919
v 0.090919 0.128579 0.090919
v 0.071435 -0.128579 0.106909
v 0.071435 0.128579 0.106909
v 0.049205 -0.128579 0.118791
v 0.049205 0.128579 0.118791
v 0.025084 -0.128579 0.126108
v 0.025084 0.128579 0.126108
v -0.000000 -0.128579 0.128579
v -0.000000 0.128579 0.128579
v -0.025085 -0.128579 0.126108
v -0.025085 0.128579 0.126108
v -0.049205 -0.128579 0.118791
v -0.049205 0.128579 0.118791
v -0.071435 -0.128579 0.106909
v -0.071435 0.128579 0.106909
v -0.090919 -0.128579 0.090919
v -0.090919 0.128579 0.090919
v -0.106909 -0.128579 0.071434
v -0.106909 0.128579 0.071434
v -0.118791 -0.128579 0.049205
v -0.118791 0.128579 0.049205
v -0.126108 -0.128579 0.025084
v -0.126108 0.128579 0.025084
v -0.128579 -0.128579 -0.000000
v -0.128579 0.128579 -0.000000
v -0.126108 -0.128579 -0.025085
v -0.126108 0.128579 -0.025085
v -0.118791 -0.128579 -0.049205
v -0.118791 0.128579 -0.049205
v -0.106909 -0.128579 -0.071435
v -0.106909 0.128579 -0.071435
v -0.090919 -0.128579 -0.090919
v -0.090919 0.128579 -0.090919
v -0.071434 -0.128579 -0.106909
v -0.071434 0.128579 -0.106909
v -0.049205 -0.128579 -0.118791
v -0.049205 0.128579 -0.118791
v -0.025084 -0.128579 -0.126108
v -0.025084 0.128579 -0.126108
vt 0.294087 0.000083
vt 0.294087 0.999916
vt 0.196087 0.999917
vt 0.196085 0.000083
vt 0.098086 0.999917
vt 0.098084 0.000083
vt 0.000085 0.999917
vt 0.000083 0.000083
vt 0.522234 0.000072
vt 0.522234 0.999926
vt 0.456964 0.999926
vt 0.456964 0.000072
vt 0.391694 0.999926
vt 0.391693 0.000072
vt 0.326424 0.999926
vt 0.326423 0.000072
vt 0.261154 0.999927
vt 0.261153 0.000072
vt 0.195884 0.999927
vt 0.195883 0.000073
vt 0.130614 0.999927
vt 0.130613 0.000073
vt 0.065344 0.999927
vt 0.065342 0.000073
vt 0.000074 0.999928
vt 0.000072 0.000074
vt 0.999904 0.000096
vt 0.999904 0.927395
vt 0.909012 0.927395
vt 0.909012 0.000096
vt 0.818121 0.927395
vt 0.818121 0.000096
vt 0.727230 0.927395
vt 0.727229 0.000096
vt 0.636339 0.927395
vt 0.636337 0.000097
vt 0.545448 0.927396
vt 0.545446 0.000097
vt 0.454556 0.927396
vt 0.454554 0.000097
vt 0.363665 0.927396
vt 0.363663 0.000097
vt 0.272774 0.927396
vt 0.272771 0.000097
vt 0.181883 0.927397
vt 0.181879 0.000098
vt 0.090991 0.927397
vt 0.090988 0.000098
vt 0.000100 0.927398
vt 0.000096 0.000098
vt 0.588092 0.000077
vt 0.588091 0.999922
vt 0.490089 0.999923
vt 0.490089 0.000077
vt 0.392087 0.999923
vt 0.392087 0.000077
vt 0.294085 0.999923
vt 0.294084 0.000077
vt 0.196083 0.999923
vt 0.196082 0.000077
vt 0.936869 0.323436
vt 0.857500 0.817666
vt 0.686007 0.761813
vt 0.803591 0.258764
vt 0.098079 0.000077
vt 0.098080 0.999923
vt 0.000078 0.999923
vt 0.000077 0.000077
vt 0.686090 0.000083
vt 0.686090 0.999916
vt 0.588089 0.999916
vt 0.588089 0.000083
vt 0.490088 0.999916
vt 0.490088 0.000083
vt 0.392087 0.999916
vt 0.392087 0.000083
vt 0.541423 0.814350
vt 0.450764 0.800677
vt 0.360044 0.773654
vt 0.269069 0.714487
vt 0.226255 0.657826
vt 0.209359 0.625306
vt 0.195667 0.598119
vt 0.189234 0.577457
vt 0.191507 0.521894
vt 0.193459 0.466391
vt 0.212670 0.367858
vt 0.269885 0.327662
vt 0.353889 0.290708
vt 0.437191 0.285531
vt 0.554224 0.293323
vt 0.588601 0.297945
vt 0.622096 0.308151
vt 0.647667 0.322463
vt 0.633512 0.341674
vt 0.648204 0.354750
vt 0.663639 0.379928
vt 0.669289 0.410186
vt 0.687085 0.450230
vt 0.714925 0.472304
vt 0.714449 0.524589
vt 0.721831 0.549237
vt 0.743853 0.594682
vt 0.744879 0.644486
vt 0.730093 0.728823
vt 0.666323 0.765249
vt 0.633275 0.786753
vt 0.591127 0.802952
vt 0.456625 0.242287
vt 0.514081 0.244241
vt 0.569645 0.251733
vt 0.641089 0.262073
vt 0.685786 0.357781
vt 0.711122 0.471705
vt 0.723996 0.531433
vt 0.727228 0.578115
vt 0.734135 0.623017
vt 0.724292 0.669812
vt 0.707542 0.704872
vt 0.677381 0.728976
vt 0.622673 0.756165
vt 0.568668 0.767202
vt 0.496557 0.776988
vt 0.436831 0.775609
vt 0.381266 0.767476
vt 0.339435 0.755757
vt 0.295589 0.740452
vt 0.257347 0.706674
vt 0.218440 0.648060
vt 0.211310 0.596008
vt 0.207384 0.531709
vt 0.197045 0.501280
vt 0.187600 0.451576
vt 0.170022 0.399980
vt 0.191187 0.346369
vt 0.217152 0.319847
vt 0.267954 0.288752
vt 0.306334 0.265998
vt 0.349148 0.250353
vt 0.399109 0.240013
vn 0.0980 0.0000 -0.9952
vn 0.2903 0.0000 -0.9569
vn 0.4714 0.0000 -0.8819
vn 0.6344 0.0000 -0.7730
vn 0.7730 0.0000 -0.6344
vn 0.8819 0.0000 -0.4714
vn 0.9569 0.0000 -0.2903
vn 0.9952 0.0000 -0.0980
vn 0.9952 0.0000 0.0980
vn 0.9569 0.0000 0.2903
vn 0.8819 0.0000 0.4714
vn 0.7730 0.0000 0.6344
vn 0.6344 0.0000 0.7730
vn 0.4714 0.0000 0.8819
vn 0.2903 0.0000 0.9569
vn 0.0980 0.0000 0.9952
vn -0.0980 0.0000 0.9952
vn -0.2903 0.0000 0.9569
vn -0.4714 0.0000 0.8819
vn -0.6344 0.0000 0.7730
vn -0.7730 0.0000 0.6344
vn -0.8819 0.0000 0.4714
vn -0.9569 0.0000 0.2903
vn -0.9952 0.0000 0.0980
vn -0.9952 0.0000 -0.0980
vn -0.9569 0.0000 -0.2903
vn -0.8819 0.0000 -0.4714
vn -0.7730 0.0000 -0.6344
vn -0.6344 0.0000 -0.7730
vn -0.4714 0.0000 -0.8819
vn -0.2903 0.0000 -0.9569
vn -0.0980 0.0000 -0.9952
vn 0.0000 1.0000 0.0000
vn 0.0000 -1.0000 -0.0000
usemtl Material.004
s off
f 1/1/1 2/2/1 4/3/1 3/4/1
f 3/4/2 4/3/2 6/5/2 5/6/2
f 5/6/3 6/5/3 8/7/3 7/8/3
f 7/9/4 8/10/4 10/11/4 9/12/4
f 9/12/5 10/11/5 12/13/5 11/14/5
f 11/14/6 12/13/6 14/15/6 13/16/6
f 13/16/7 14/15/7 16/17/7 15/18/7
f 15/18/8 16/17/8 18/19/8 17/20/8
f 17/20/9 18/19/9 20/21/9 19/22/9
f 19/22/10 20/21/10 22/23/10 21/24/10
f 21/24/11 22/23/11 24/25/11 23/26/11
f 23/27/12 24/28/12 26/29/12 25/30/12
f 25/30/13 26/29/13 28/31/13 27/32/13
f 27/32/14 28/31/14 30/33/14 29/34/14
f 29/34/15 30/33/15 32/35/15 31/36/15
f 31/36/16 32/35/16 34/37/16 33/38/16
f 33/38/17 34/37/17 36/39/17 35/40/17
f 35/40/18 36/39/18 38/41/18 37/42/18
f 37/42/19 38/41/19 40/43/19 39/44/19
f 39/44/20 40/43/20 42/45/20 41/46/20
f 41/46/21 42/45/21 44/47/21 43/48/21
f 43/48/22 44/47/22 46/49/22 45/50/22
f 45/51/23 46/52/23 48/53/23 47/54/23
f 47/54/24 48/53/24 50/55/24 49/56/24
f 49/56/25 50/55/25 52/57/25 51/58/25
f 51/58/26 52/57/26 54/59/26 53/60/26
f 53/61/27 54/62/27 56/63/27 55/64/27
f 55/65/28 56/66/28 58/67/28 57/68/28
f 57/69/29 58/70/29 60/71/29 59/72/29
f 59/72/30 60/71/30 62/73/30 61/74/30
f 61/74/31 62/73/31 64/75/31 63/76/31
f 63/76/32 64/75/32 2/2/32 1/1/32
usemtl Material.006
f 4/77/33 2/78/33 64/79/33 62/80/33 60/81/33 58/82/33 56/83/33 54/84/33 52/85/33 50/86/33 48/87/33 46/88/33 44/89/33 42/90/33 40/91/33 38/92/33 36/93/33 34/94/33 32/95/33 30/96/33 28/97/33 26/98/33 24/99/33 22/100/33 20/101/33 18/102/33 16/103/33 14/104/33 12/105/33 10/106/33 8/107/33 6/108/33
f 1/109/34 3/110/34 5/111/34 7/112/34 9/113/34 11/114/34 13/115/34 15/116/34 17/117/34 19/118/34 21/119/34 23/120/34 25/121/34 27/122/34 29/123/34 31/124/34 33/125/34 35/126/34 37/127/34 39/128/34 41/129/34 43/130/34 45/131/34 47/132/34 49/133/34 51/134/34 53/135/34 55/136/34 57/137/34 59/138/34 61/139/34 63/140/34
